HIERARCHY
ROOT Hips
{
	OFFSET 0.00000 0.00000 0.00000
	CHANNELS 6 Xposition Yposition Zposition Zrotation Yrotation Xrotation 
	JOINT LHipJoint
	{
		OFFSET 0 0 0
		CHANNELS 3 Zrotation Yrotation Xrotation
		JOINT LeftUpLeg
		{
			OFFSET 1.43652 -1.81092 0.91346
			CHANNELS 3 Zrotation Yrotation Xrotation
			JOINT LeftLeg
			{
				OFFSET 2.45984 -6.75837 0.00000
				CHANNELS 3 Zrotation Yrotation Xrotation
				JOINT LeftFoot
				{
					OFFSET 2.63718 -7.24559 0.00000
					CHANNELS 3 Zrotation Yrotation Xrotation
					JOINT LeftToeBase
					{
						OFFSET 0.19690 -0.54098 2.12239
						CHANNELS 3 Zrotation Yrotation Xrotation
						End Site
						{
							OFFSET 0.00000 -0.00000 1.10116
						}
					}
				}
			}
		}
	}
	JOINT RHipJoint
	{
		OFFSET 0 0 0
		CHANNELS 3 Zrotation Yrotation Xrotation
		JOINT RightUpLeg
		{
			OFFSET -1.35116 -1.81092 0.91345
			CHANNELS 3 Zrotation Yrotation Xrotation
			JOINT RightLeg
			{
				OFFSET -2.55576 -7.02189 0.00000
				CHANNELS 3 Zrotation Yrotation Xrotation
				JOINT RightFoot
				{
					OFFSET -2.61938 -7.19669 0.00000
					CHANNELS 3 Zrotation Yrotation Xrotation
					JOINT RightToeBase
					{
						OFFSET -0.32509 -0.89318 2.23646
						CHANNELS 3 Zrotation Yrotation Xrotation
						End Site
						{
							OFFSET -0.00000 -0.00000 1.19625
						}
					}
				}
			}
		}
	}
	JOINT LowerBack
	{
		OFFSET 0 0 0
		CHANNELS 3 Zrotation Yrotation Xrotation
		JOINT Spine
		{
			OFFSET 0.05193 2.08077 -0.11958
			CHANNELS 3 Zrotation Yrotation Xrotation
			JOINT Spine1
			{
				OFFSET 0.04960 2.08447 0.01967
				CHANNELS 3 Zrotation Yrotation Xrotation
				JOINT Neck
				{
					OFFSET 0 0 0
					CHANNELS 3 Zrotation Yrotation Xrotation
					JOINT Neck1
					{
						OFFSET -0.10699 1.82066 0.27584
						CHANNELS 3 Zrotation Yrotation Xrotation
						JOINT Head
						{
							OFFSET 0.14949 1.84747 -0.32279
							CHANNELS 3 Zrotation Yrotation Xrotation
							End Site
							{
								OFFSET 0.04969 1.88916 -0.14562
							}
						}
					}
				}
				JOINT LeftShoulder
				{
					OFFSET 0 0 0
					CHANNELS 3 Zrotation Yrotation Xrotation
					JOINT LeftArm
					{
						OFFSET 3.73629 1.27211 -0.12847
						CHANNELS 3 Zrotation Yrotation Xrotation
						JOINT LeftForeArm
						{
							OFFSET 5.10995 -0.00000 0.00000
							CHANNELS 3 Zrotation Yrotation Xrotation
							JOINT LeftHand
							{
								OFFSET 3.21207 -0.00000 0.00000
								CHANNELS 3 Zrotation Yrotation Xrotation
								JOINT LeftFingerBase
								{
									OFFSET 0 0 0
									CHANNELS 3 Zrotation Yrotation Xrotation
									JOINT LeftHandIndex1
									{
										OFFSET 0.63349 -0.00000 0.00000
										CHANNELS 3 Zrotation Yrotation Xrotation
										End Site
										{
											OFFSET 0.51074 -0.00000 0.00000
										}
									}
								}
								JOINT LThumb
								{
									OFFSET 0 0 0
									CHANNELS 3 Zrotation Yrotation Xrotation
									End Site
									{
										OFFSET 0.51853 -0.00000 0.51853
									}
								}
							}
						}
					}
				}
				JOINT RightShoulder
				{
					OFFSET 0 0 0
					CHANNELS 3 Zrotation Yrotation Xrotation
					JOINT RightArm
					{
						OFFSET -3.70251 1.29541 -0.35354
						CHANNELS 3 Zrotation Yrotation Xrotation
						JOINT RightForeArm
						{
							OFFSET -5.25109 -0.00000 0.00000
							CHANNELS 3 Zrotation Yrotation Xrotation
							JOINT RightHand
							{
								OFFSET -3.28364 -0.00000 0.00000
								CHANNELS 3 Zrotation Yrotation Xrotation
								JOINT RightFingerBase
								{
									OFFSET 0 0 0
									CHANNELS 3 Zrotation Yrotation Xrotation
									JOINT RightHandIndex1
									{
										OFFSET -0.59974 -0.00000 0.00000
										CHANNELS 3 Zrotation Yrotation Xrotation
										End Site
										{
											OFFSET -0.48353 -0.00000 0.00000
										}
									}
								}
								JOINT RThumb
								{
									OFFSET 0 0 0
									CHANNELS 3 Zrotation Yrotation Xrotation
									End Site
									{
										OFFSET -0.49091 -0.00000 0.49091
									}
								}
							}
						}
					}
				}
			}
		}
	}
}
MOTION
Frames: 16
Frame Time: .0083333
5.1144 15.4234 16.131 0 0 0 0 0 0 -21 0 0 0 0 0 0 0 0 0 0 0 0 0 0 21 0 0 0 0 0 0 0 0 0 0 0 0 0 0 0 0 0 0 0 0 0 0 -16 0 0 21 0 0 11 0 0 0 -8 0 0 0 0 0 0 0 0 0 0 0 0 0 0 0 0 0 0 0 0 8 0 0 0 0 0 0 0 0 0 0 0 0 0 0 0 0 0
5.1144 15.4234 16.1310 -4.4817 -4.2200 -2.7352 0.0000 0.0000 0.0000 -7.5084 3.5117 -24.8200 10.6599 17.7646 61.6720 2.8100 -11.5190 -30.2367 0.5081 -4.5690 -12.6833 0.0000 0.0000 0.0000 17.8794 0.6574 -24.3879 -11.5585 -18.1977 64.5823 -3.7796 5.5398 -35.7142 -0.3770 3.9436 -10.9181 2.4602 0.8179 7.1020 2.7655 1.3974 0.1835 1.3365 0.6727 -3.8061 -10.1712 -7.5358 -21.4709 9.1983 -9.3811 18.6796 3.4720 -4.0004 10.4634 0.0000 0.0000 0.0000 -65.0879 -46.1891 13.5370 80.9027 -59.6850 -52.1298 -0.0000 -0.0000 28.4564 -9.2068 9.9920 -1.6109 -7.1250 0.0000 -0.0000 -30.3719 38.1042 5.8180 0.0000 0.0000 0.0000 51.7777 55.1067 9.1556 -64.2788 57.3463 -37.9232 0.0000 0.0000 13.4810 11.2217 -7.4842 -1.4803 7.1250 -0.0000 -0.0000 30.9552 -35.7311 8.0524
5.1139 15.4254 16.1313 -4.5053 -4.2054 -2.7337 0.0000 0.0000 0.0000 -7.4844 3.5090 -24.8170 10.6540 17.7616 61.6527 2.8071 -11.5230 -30.2209 0.5098 -4.5768 -12.7053 0.0000 0.0000 0.0000 17.9118 0.6535 -24.3679 -11.5483 -18.1931 64.5498 -3.7778 5.5227 -35.7081 -0.3747 3.9316 -10.8844 2.4724 0.8153 7.1273 2.7723 1.3966 0.1765 1.3365 0.6719 -3.8275 -10.1426 -7.5356 -21.5087 9.1642 -9.3757 18.6566 3.4550 -3.9988 10.4579 -0.0000 -0.0000 0.0000 -65.1359 -46.1872 13.5670 80.8788 -59.6833 -52.1092 -0.0000 -0.0000 28.4576 -9.2015 9.9736 -1.6071 -7.1250 0.0000 -0.0000 -30.3609 38.0887 5.8287 -0.0000 -0.0000 0.0000 51.8162 55.0850 9.2095 -64.3078 57.3527 -37.9477 0.0000 0.0000 13.4164 11.2546 -7.5022 -1.4883 7.1250 -0.0000 -0.0000 30.9857 -35.7441 8.0512
5.1128 15.4262 16.1310 -4.5107 -4.1893 -2.7334 0.0000 0.0000 0.0000 -7.4713 3.5151 -24.8244 10.6524 17.7608 61.6476 2.8026 -11.5792 -30.1981 0.4957 -4.5141 -12.5278 0.0000 0.0000 0.0000 17.9271 0.6585 -24.3614 -11.5448 -18.1915 64.5384 -3.7785 5.5097 -35.7132 -0.3737 3.9263 -10.8695 2.4645 0.8138 7.1279 2.7727 1.3937 0.1830 1.3416 0.6707 -3.8213 -10.1588 -7.5355 -21.4986 9.1736 -9.3720 18.6385 3.4617 -3.9977 10.4505 0.0000 -0.0000 0.0000 -65.1778 -46.1997 13.5995 80.9135 -59.6857 -52.1392 -0.0000 -0.0000 28.4185 -9.1900 10.0026 -1.6096 -7.1250 0.0000 -0.0000 -30.3631 38.1151 5.8066 0.0000 -0.0000 0.0000 51.8628 55.0858 9.2466 -64.2965 57.3502 -37.9381 0.0000 0.0000 13.3840 11.2393 -7.4822 -1.4823 7.1250 -0.0000 -0.0000 30.9673 -35.7279 8.0593
5.1121 15.4259 16.1313 -4.5218 -4.1687 -2.7329 0.0000 0.0000 0.0000 -7.4564 3.5217 -24.8291 10.6516 17.7603 61.6449 2.8040 -11.5780 -30.2057 0.5018 -4.5414 -12.6050 0.0000 0.0000 0.0000 17.9433 0.6554 -24.3505 -11.5410 -18.1898 64.5263 -3.7779 5.4846 -35.7142 -0.3749 3.9325 -10.8869 2.4685 0.8120 7.1311 2.7703 1.3917 0.1819 1.3370 0.6696 -3.8240 -10.1620 -7.5342 -21.4748 9.1861 -9.3707 18.5934 3.4670 -3.9970 10.4306 0.0000 -0.0000 0.0000 -65.2296 -46.1928 13.6429 80.9041 -59.6851 -52.1310 -0.0000 -0.0000 28.4041 -9.2160 9.9794 -1.6106 -7.1250 0.0000 -0.0000 -30.3742 38.0924 5.8287 0.0000 -0.0000 0.0000 51.9141 55.0617 9.2847 -64.3041 57.3518 -37.9445 0.0000 0.0000 13.3838 11.2487 -7.4761 -1.4824 7.1250 -0.0000 -0.0000 30.9720 -35.7217 8.0663
5.1112 15.4264 16.1312 -4.5321 -4.1451 -2.7296 0.0000 0.0000 0.0000 -7.4421 3.5206 -24.8380 10.6507 17.7599 61.6420 2.8030 -11.5938 -30.2009 0.5012 -4.5386 -12.5971 0.0000 0.0000 0.0000 17.9599 0.6503 -24.3463 -11.5379 -18.1884 64.5165 -3.7778 5.4663 -35.7167 -0.3749 3.9326 -10.8871 2.4690 0.8079 7.1338 2.7705 1.3865 0.1830 1.3375 0.6670 -3.8244 -10.1638 -7.5332 -21.4745 9.1888 -9.3669 18.5651 3.4687 -3.9953 10.4202 -0.0000 -0.0000 0.0000 -65.2753 -46.1907 13.6785 80.8998 -59.6848 -52.1273 -0.0000 -0.0000 28.3851 -9.2211 9.9774 -1.6111 -7.1250 0.0000 -0.0000 -30.3773 38.0901 5.8314 -0.0000 -0.0000 0.0000 51.9586 55.0491 9.3232 -64.3011 57.3512 -37.9420 0.0000 0.0000 13.3692 11.2396 -7.4715 -1.4802 7.1250 -0.0000 -0.0000 30.9637 -35.7184 8.0665
5.1104 15.4269 16.1311 -4.5392 -4.1179 -2.7244 0.0000 0.0000 0.0000 -7.4321 3.5160 -24.8496 10.6499 17.7595 61.6393 2.8021 -11.6083 -30.1962 0.5006 -4.5361 -12.5899 0.0000 0.0000 0.0000 17.9724 0.6420 -24.3463 -11.5350 -18.1871 64.5070 -3.7774 5.4485 -35.7175 -0.3754 3.9353 -10.8947 2.4670 0.8031 7.1333 2.7700 1.3797 0.1847 1.3387 0.6637 -3.8223 -10.1658 -7.5320 -21.4756 9.1909 -9.3625 18.5372 3.4702 -3.9934 10.4101 0.0000 0.0000 0.0000 -65.3209 -46.1869 13.7155 80.8917 -59.6842 -52.1204 -0.0000 -0.0000 28.3670 -9.2224 9.9763 -1.6112 -7.1250 0.0000 -0.0000 -30.3779 38.0891 5.8324 0.0000 0.0000 0.0000 52.0005 55.0381 9.3576 -64.2934 57.3495 -37.9355 0.0000 0.0000 13.3613 11.2278 -7.4670 -1.4778 7.1250 -0.0000 -0.0000 30.9535 -35.7155 8.0656
5.1096 15.4275 16.1309 -4.5444 -4.0888 -2.7178 0.0000 0.0000 0.0000 -7.4249 3.5085 -24.8615 10.6482 17.7586 61.6338 2.8007 -11.6219 -30.1891 0.5002 -4.5341 -12.5842 0.0000 0.0000 0.0000 17.9823 0.6318 -24.3484 -11.5317 -18.1856 64.4966 -3.7767 5.4309 -35.7165 -0.3764 3.9405 -10.9094 2.4628 0.7977 7.1314 2.7694 1.3720 0.1874 1.3414 0.6600 -3.8184 -10.1669 -7.5316 -21.4822 9.1923 -9.3587 18.5085 3.4711 -3.9916 10.4006 0.0000 0.0000 0.0000 -65.3660 -46.1849 13.7502 80.8758 -59.6831 -52.1066 -0.0000 -0.0000 28.3597 -9.2217 9.9703 -1.6101 -7.1250 0.0000 -0.0000 -30.3752 38.0839 5.8362 0.0000 0.0000 0.0000 52.0374 55.0283 9.3867 -64.2838 57.3474 -37.9274 0.0000 0.0000 13.3542 11.2161 -7.4649 -1.4758 7.1250 -0.0000 -0.0000 30.9442 -35.7147 8.0632
5.1088 15.4283 16.1307 -4.5482 -4.0590 -2.7095 0.0000 0.0000 0.0000 -7.4198 3.4983 -24.8746 10.6460 17.7574 61.6264 2.7988 -11.6369 -30.1789 0.4990 -4.5286 -12.5688 0.0000 0.0000 0.0000 17.9909 0.6213 -24.3531 -11.5283 -18.1840 64.4855 -3.7758 5.4146 -35.7147 -0.3773 3.9449 -10.9217 2.4573 0.7925 7.1297 2.7687 1.3644 0.1900 1.3446 0.6563 -3.8148 -10.1677 -7.5320 -21.4914 9.1927 -9.3557 18.4802 3.4715 -3.9902 10.3918 0.0000 0.0000 0.0000 -65.4101 -46.1836 13.7853 80.8556 -59.6817 -52.0892 -0.0000 -0.0000 28.3600 -9.2110 9.9627 -1.6070 -7.1250 0.0000 -0.0000 -30.3640 38.0782 5.8384 0.0000 0.0000 0.0000 52.0709 55.0194 9.4103 -64.2733 57.3451 -37.9186 0.0000 0.0000 13.3462 11.2063 -7.4654 -1.4745 7.1250 -0.0000 -0.0000 30.9371 -35.7159 8.0597
5.1079 15.4292 16.1305 -4.5482 -4.0313 -2.7021 0.0000 0.0000 0.0000 -7.4194 3.4895 -24.8850 10.6429 17.7558 61.6162 2.7964 -11.6520 -30.1667 0.4973 -4.5209 -12.5471 0.0000 0.0000 0.0000 17.9953 0.6121 -24.3558 -11.5245 -18.1823 64.4735 -3.7752 5.4000 -35.7137 -0.3778 3.9478 -10.9298 2.4469 0.7886 7.1309 2.7677 1.3583 0.1922 1.3500 0.6535 -3.8134 -10.1701 -7.5335 -21.5005 9.1939 -9.3539 18.4523 3.4722 -3.9893 10.3834 0.0000 -0.0000 0.0000 -65.4551 -46.1812 13.8212 80.8321 -59.6800 -52.0689 -0.0000 -0.0000 28.3709 -9.1898 9.9481 -1.6009 -7.1250 0.0000 -0.0000 -30.3423 38.0673 5.8424 0.0000 -0.0000 0.0000 52.1023 55.0092 9.4296 -64.2649 57.3433 -37.9115 0.0000 0.0000 13.3342 11.2044 -7.4669 -1.4746 7.1250 -0.0000 -0.0000 30.9363 -35.7174 8.0581
5.1071 15.4302 16.1303 -4.5472 -4.0054 -2.6945 0.0000 0.0000 0.0000 -7.4202 3.4822 -24.8948 10.6391 17.7539 61.6040 2.7940 -11.6661 -30.1536 0.4957 -4.5142 -12.5279 0.0000 0.0000 0.0000 17.9989 0.6031 -24.3586 -11.5204 -18.1805 64.4603 -3.7745 5.3858 -35.7126 -0.3783 3.9501 -10.9363 2.4360 0.7858 7.1338 2.7662 1.3537 0.1940 1.3550 0.6514 -3.8133 -10.1732 -7.5358 -21.5076 9.1977 -9.3536 18.4216 3.4737 -3.9890 10.3739 -0.0000 -0.0000 0.0000 -65.5004 -46.1793 13.8584 80.8054 -59.6781 -52.0458 -0.0000 -0.0000 28.3888 -9.1601 9.9277 -1.5924 -7.1250 0.0000 -0.0000 -30.3118 38.0520 5.8481 -0.0000 -0.0000 0.0000 52.1314 54.9990 9.4423 -64.2632 57.3429 -37.9101 0.0000 0.0000 13.3168 11.2085 -7.4703 -1.4758 7.1250 -0.0000 -0.0000 30.9405 -35.7200 8.0572
5.1062 15.4314 16.1302 -4.5452 -3.9823 -2.6885 0.0000 0.0000 0.0000 -7.4223 3.4770 -24.9013 10.6348 17.7517 61.5897 2.7912 -11.6797 -30.1391 0.4940 -4.5063 -12.5057 0.0000 0.0000 0.0000 18.0012 0.5942 -24.3584 -11.5159 -18.1784 64.4459 -3.7742 5.3756 -35.7125 -0.3775 3.9460 -10.9248 2.4248 0.7846 7.1397 2.7641 1.3513 0.1954 1.3592 0.6504 -3.8154 -10.1776 -7.5379 -21.5141 9.2047 -9.3535 18.3913 3.4765 -3.9885 10.3648 0.0000 0.0000 0.0000 -65.5445 -46.1755 13.8972 80.7775 -59.6762 -52.0218 -0.0000 -0.0000 28.4106 -9.1263 9.9060 -1.5830 -7.1250 0.0000 -0.0000 -30.2778 38.0360 5.8534 0.0000 0.0000 0.0000 52.1580 54.9856 9.4513 -64.2661 57.3435 -37.9125 0.0000 0.0000 13.2926 11.2109 -7.4729 -1.4766 7.1250 -0.0000 -0.0000 30.9433 -35.7221 8.0563
5.1053 15.4326 16.1302 -4.5432 -3.9622 -2.6821 0.0000 0.0000 0.0000 -7.4247 3.4756 -24.9082 10.6302 17.7493 61.5747 2.7888 -11.6887 -30.1259 0.4933 -4.5030 -12.4964 0.0000 0.0000 0.0000 18.0035 0.5858 -24.3582 -11.5111 -18.1763 64.4306 -3.7738 5.3679 -35.7116 -0.3764 3.9405 -10.9094 2.4154 0.7843 7.1459 2.7612 1.3503 0.1972 1.3615 0.6500 -3.8172 -10.1795 -7.5391 -21.5224 9.2112 -9.3527 18.3606 3.4788 -3.9875 10.3556 0.0000 -0.0000 0.0000 -65.5862 -46.1714 13.9343 80.7499 -59.6742 -51.9979 -0.0000 -0.0000 28.4311 -9.0917 9.8819 -1.5731 -7.1250 0.0000 -0.0000 -30.2424 38.0180 5.8601 0.0000 -0.0000 0.0000 52.1824 54.9723 9.4574 -64.2726 57.3450 -37.9180 0.0000 0.0000 13.2651 11.2066 -7.4732 -1.4761 7.1250 -0.0000 -0.0000 30.9402 -35.7227 8.0547
5.1045 15.4339 16.1301 -4.5442 -3.9442 -2.6744 0.0000 0.0000 0.0000 -7.4235 3.4752 -24.9164 10.6258 17.7470 61.5602 2.7861 -11.6979 -30.1117 0.4928 -4.5007 -12.4898 0.0000 0.0000 0.0000 18.0091 0.5783 -24.3591 -11.5062 -18.1740 64.4148 -3.7731 5.3594 -35.7098 -0.3756 3.9362 -10.8974 2.4087 0.7843 7.1513 2.7592 1.3498 0.2000 1.3632 0.6499 -3.8174 -10.1830 -7.5396 -21.5339 9.2218 -9.3509 18.3299 3.4831 -3.9856 10.3473 0.0000 -0.0000 0.0000 -65.6225 -46.1703 13.9651 80.7212 -59.6722 -51.9732 -0.0000 -0.0000 28.4491 -9.0671 9.8577 -1.5650 -7.1250 0.0000 -0.0000 -30.2145 37.9990 5.8694 0.0000 -0.0000 0.0000 52.2025 54.9600 9.4615 -64.2800 57.3466 -37.9243 0.0000 0.0000 13.2379 11.1890 -7.4681 -1.4727 7.1250 -0.0000 -0.0000 30.9255 -35.7198 8.0523
5.1037 15.4351 16.1299 -4.5476 -3.9272 -2.6648 0.0000 0.0000 0.0000 -7.4195 3.4754 -24.9281 10.6219 17.7450 61.5475 2.7836 -11.7069 -30.0981 0.4922 -4.4982 -12.4828 0.0000 0.0000 0.0000 18.0173 0.5710 -24.3630 -11.5013 -18.1718 64.3991 -3.7720 5.3506 -35.7056 -0.3755 3.9357 -10.8960 2.4056 0.7844 7.1559 2.7575 1.3497 0.2027 1.3632 0.6499 -3.8172 -10.1838 -7.5393 -21.5468 9.2297 -9.3482 18.2997 3.4859 -3.9834 10.3389 0.0000 -0.0000 0.0000 -65.6537 -46.1683 13.9928 80.6973 -59.6705 -51.9526 -0.0000 -0.0000 28.4591 -9.0516 9.8367 -1.5590 -7.1250 0.0000 -0.0000 -30.1948 37.9820 5.8790 0.0000 -0.0000 0.0000 52.2174 54.9481 9.4638 -64.2886 57.3485 -37.9315 0.0000 0.0000 13.2168 11.1636 -7.4584 -1.4674 7.1250 -0.0000 -0.0000 30.9034 -35.7133 8.0506
5.1029 15.4364 16.1296 -4.5539 -3.9107 -2.6534 0.0000 0.0000 0.0000 -7.4122 3.4756 -24.9421 10.6188 17.7435 61.5374 2.7813 -11.7166 -30.0855 0.4918 -4.4962 -12.4771 0.0000 0.0000 0.0000 18.0281 0.5637 -24.3695 -11.4965 -18.1696 64.3837 -3.7704 5.3422 -35.6986 -0.3761 3.9388 -10.9046 2.4060 0.7841 7.1601 2.7566 1.3495 0.2044 1.3620 0.6498 -3.8178 -10.1852 -7.5385 -21.5597 9.2389 -9.3451 18.2714 3.4895 -3.9808 10.3314 -0.0000 -0.0000 0.0000 -65.6809 -46.1642 14.0168 80.6765 -59.6690 -51.9346 -0.0000 -0.0000 28.4633 -9.0460 9.8171 -1.5549 -7.1250 0.0000 -0.0000 -30.1831 37.9652 5.8904 -0.0000 -0.0000 0.0000 52.2287 54.9344 9.4674 -64.2986 57.3506 -37.9399 0.0000 0.0000 13.2055 11.1303 -7.4453 -1.4604 7.1250 -0.0000 -0.0000 30.8742 -35.7046 8.0484
